Coordinates
version=1
nRows=20
nColumns=30
inDegrees=yes

Units are S.I. units (second, meters, Newtons, ...)
Angles are in degrees.

endheader
time	floatyaw	floatroll	floatpitch	floatx	floaty	floatz	pro_sup_l	deviation_l	flexion_l	cmc_flexion_l	cmc_abduction_l	mp_flexion_l	ip_flexion_l	2mcp_flexion_l	2mcp_abduction_l	2pm_flexion_l	2md_flexion_l	3mcp_flexion_l	3mcp_abduction_l	3pm_flexion_l	3md_flexion_l	4mcp_flexion_l	4mcp_abduction_l	4pm_flexion_l	4md_flexion_l	5mcp_flexion_l	5mcp_abduction_l	5pm_flexion_l	5md_flexion_l
0.005000	3.029614	-4.103828	101.268469	0.063095	-0.162995	0.050972	89.704251	16.767755	-8.258648	8.632055	24.593320	-31.122372	-50.048280	63.618799	7.420981	52.446201	38.520599	57.143262	5.007774	61.957315	49.277790	61.613684	-6.428467	72.478155	56.803966	74.255276	-4.412415	69.196657	36.852614
0.015000	3.029614	-4.103828	101.268469	0.063444	-0.160398	0.050729	89.170933	16.664826	-9.101332	8.644756	24.354583	-31.483593	-50.510096	63.789852	7.320991	52.346372	38.666312	57.450668	5.017267	61.761909	49.408496	61.791527	-6.409116	72.514961	57.125633	74.451908	-4.426259	69.573008	36.942659
0.025000	3.029614	-4.103828	101.268469	0.063813	-0.157265	0.050629	89.040813	16.726540	-9.941313	8.694779	23.957906	-31.869578	-51.011739	64.047788	7.172726	52.212935	38.776154	57.872130	5.034356	61.532720	49.462395	62.026332	-6.379036	72.566236	57.410457	74.648395	-4.462704	69.957164	37.008467
0.035000	3.029614	-4.103828	101.268469	0.064179	-0.153971	0.050606	89.278227	16.998582	-10.650688	8.729597	23.422364	-32.169524	-51.410292	64.408598	7.002192	51.985352	38.825101	58.361632	5.061273	61.269274	49.433559	62.327284	-6.347326	72.571997	57.580715	74.884371	-4.514680	70.223090	36.992501
0.045000	3.029614	-4.103828	101.268469	0.064513	-0.150986	0.050553	89.730847	17.469886	-11.135659	8.688267	22.806730	-32.293563	-51.583378	64.853796	6.851601	51.627408	38.799202	58.848842	5.097569	60.975656	49.337549	62.677013	-6.323488	72.472846	57.572572	75.166655	-4.571915	70.266788	36.861607
0.055000	3.029614	-4.103828	101.268469	0.064791	-0.148732	0.050375	90.177924	18.062592	-11.372945	8.531441	22.191196	-32.221970	-51.493278	65.329138	6.761300	51.157188	38.712818	59.266027	5.138688	60.663676	49.217666	63.037581	-6.313686	72.244225	57.377253	75.469095	-4.623775	70.065470	36.625835
0.065000	3.029614	-4.103828	101.268469	0.064989	-0.147437	0.050037	90.422237	18.652559	-11.414075	8.266560	21.639378	-32.017464	-51.207129	65.761843	6.751002	50.649587	38.608709	59.570376	5.176937	60.355019	49.135920	63.363212	-6.318664	71.913957	57.057085	75.747751	-4.663084	69.692168	36.335165
0.075000	3.029614	-4.103828	101.268469	0.065091	-0.147063	0.049586	90.376451	19.115178	-11.357086	7.950633	21.163894	-31.789452	-50.857594	66.091997	6.811397	50.202659	38.536126	59.754007	5.204770	60.076318	49.146287	63.616500	-6.334298	71.547968	56.719560	75.963694	-4.688769	69.273034	36.053961
0.085000	3.029614	-4.103828	101.268469	0.065088	-0.147337	0.049128	90.090239	19.373985	-11.303216	7.665787	20.716012	-31.633396	-50.569212	66.298838	6.910487	49.888852	38.521033	59.839050	5.218447	59.849652	49.263605	63.780519	-6.354044	71.216701	56.463198	76.100213	-4.705342	68.919199	35.829536
0.095000	3.029614	-4.103828	101.268469	0.064988	-0.147892	0.048773	89.702415	19.426360	-11.320479	7.481220	20.205168	-31.585240	-50.398410	66.404001	7.009694	49.724573	38.550421	59.861740	5.219644	59.686577	49.450139	63.860810	-6.371738	70.967787	56.331021	76.165412	-4.719476	68.681377	35.675260
0.105000	3.029614	-4.103828	101.268469	0.064812	-0.148414	0.048569	89.354356	19.334813	-11.427522	7.423582	19.538870	-31.616007	-50.320790	66.451178	7.080024	49.675159	38.582189	59.854722	5.214055	59.588690	49.632734	63.877918	-6.383558	70.818241	56.301045	76.181923	-4.736030	68.549792	35.576022
0.115000	3.029614	-4.103828	101.268469	0.064598	-0.148739	0.048495	89.123460	19.192646	-11.599424	7.470647	18.663931	-31.661745	-50.263696	66.477801	7.110632	49.686001	38.573106	59.836381	5.208122	59.550941	49.741529	63.856101	-6.388695	70.761168	56.314341	76.173041	-4.756082	68.484816	35.507113
0.125000	3.029614	-4.103828	101.268469	0.064383	-0.148856	0.048477	89.011509	19.084363	-11.788495	7.568220	17.589597	-31.664220	-50.155604	66.496689	7.108060	49.716563	38.505180	59.809849	5.206098	59.564544	49.744458	63.813780	-6.388763	70.776519	56.315397	76.153489	-4.777777	68.449028	35.451042
0.135000	3.029614	-4.103828	101.268469	0.064196	-0.148844	0.048438	88.977742	19.058733	-11.949172	7.658204	16.383895	-31.597756	-49.961534	66.496701	7.089171	49.756514	38.393042	59.769042	5.208970	59.618951	49.655425	63.759127	-6.386384	70.840012	56.277186	76.127355	-4.798728	68.422478	35.402511
0.145000	3.029614	-4.103828	101.268469	0.064048	-0.148795	0.048336	88.979955	19.121719	-12.056396	7.702643	15.149488	-31.471421	-49.690008	66.459333	7.072135	49.816518	38.269641	59.707863	5.215280	59.701490	49.515821	63.692194	-6.383744	70.928090	56.202052	76.091363	-4.817935	68.400740	35.362095
0.155000	3.029614	-4.103828	101.268469	0.063937	-0.148770	0.048176	88.995303	19.246180	-12.111150	7.693595	13.992183	-31.312560	-49.376782	66.378300	7.069006	49.904152	38.163710	59.628102	5.222775	59.794223	49.368378	63.611503	-6.381851	71.018921	56.108834	76.039939	-4.836036	68.385486	35.326828
0.165000	3.029614	-4.103828	101.268469	0.063845	-0.148786	0.047990	89.018394	19.390017	-12.133405	7.647530	12.991807	-31.146976	-49.061037	66.267178	7.082090	50.006392	38.086501	59.540676	5.229740	59.872862	49.241711	63.519218	-6.380709	71.092635	56.019984	75.968588	-4.854220	68.377139	35.286815
0.175000	3.029614	-4.103828	101.268469	0.063752	-0.148834	0.047820	89.050780	19.514049	-12.148538	7.590623	12.181039	-30.988107	-48.767735	66.150068	7.104817	50.093002	38.034252	59.458283	5.235517	59.913514	49.148463	63.420210	-6.379914	71.134566	55.953410	75.874365	-4.872924	68.372706	35.230856
0.185000	3.029614	-4.103828	101.268469	0.063640	-0.148894	0.047695	89.093927	19.593605	-12.175250	7.544608	11.538402	-30.837285	-48.502010	66.044483	7.126093	50.135569	37.999191	59.385045	5.240339	59.904568	49.089391	63.316808	-6.379100	71.140360	55.917544	75.755133	-4.891290	68.365952	35.156019
0.195000	3.029614	-4.103828	101.268469	0.063498	-0.148953	0.047625	89.147705	19.621592	-12.220265	7.520244	11.000624	-30.689775	-48.254362	65.950784	7.135975	50.124899	37.978106	59.312154	5.244861	59.853678	49.057443	63.205320	-6.377997	71.117733	55.909224	75.609772	-4.907672	68.347202	35.073380
